<svg xmlns="http://www.w3.org/2000/svg" version="1.1" xmlns:xlink="http://www.w3.org/1999/xlink" xmlns:svgjs="http://svgjs.dev/svgjs" width="1440" height="560" preserveAspectRatio="none" viewBox="0 0 1440 560"><g mask="url(&quot;#SvgjsMask1058&quot;)" fill="none"><rect width="1440" height="560" x="0" y="0" fill="rgba(204, 213, 174, 1)"></rect><path d="M0,380.482C69.021,368.586,111.416,302.804,168.713,262.523C223.039,224.33,287.322,202.257,328.084,149.831C375.97,88.243,420.519,17.659,419.752,-60.351C418.949,-142.082,380.236,-221.446,323.854,-280.621C268.734,-338.472,191.413,-370.793,112.429,-382.898C39.399,-394.09,-31.206,-368.436,-101.541,-345.816C-170.134,-323.757,-245.168,-307.775,-291.845,-252.885C-338.373,-198.17,-356.743,-122.382,-352.512,-50.684C-348.652,14.718,-292.628,61.79,-269.653,123.146C-244.231,191.037,-263.188,277.873,-210.743,327.923C-157.284,378.94,-72.822,393.033,0,380.482" fill="#bcc895"></path><path d="M1440 862.271C1501.201 855.847 1564.607 867.1659999999999 1619.384 839.126 1677.06 809.602 1726.584 762.088 1752.077 702.521 1777.298 643.5889999999999 1764.48 578.032 1758.435 514.216 1752.085 447.176 1764.034 368.029 1715.929 320.906 1667.7640000000001 273.724 1587.821 294.726 1521.573 282.187 1463.121 271.123 1407.969 240.95800000000003 1349.427 251.536 1287.648 262.698 1234.254 299.036 1188.78 342.317 1139.859 388.879 1087.637 441.129 1079.753 508.204 1071.914 574.894 1121.636 631.612 1147.492 693.5840000000001 1174.393 758.06 1174.146 844.604 1234.666 879.506 1295.396 914.529 1370.278 869.5889999999999 1440 862.271" fill="#dce2c8"></path></g><defs><mask id="SvgjsMask1058"><rect width="1440" height="560" fill="#ffffff"></rect></mask></defs></svg>